<?xml version="1.0" encoding="us-ascii" standalone="no"?><svg xmlns="http://www.w3.org/2000/svg" xmlns:xlink="http://www.w3.org/1999/xlink" contentStyleType="text/css" height="281px" preserveAspectRatio="none" style="width:338px;height:281px;background:#FFFFFF;" version="1.1" viewBox="0 0 338 281" width="338px" zoomAndPan="magnify"><defs/><g><!--entity ms--><g id="elem_ms"><path d="M41,229.59 C41,219.59 71,219.59 71,219.59 C71,219.59 101,219.59 101,229.59 L101,254.8869 C101,264.8869 71,264.8869 71,264.8869 C71,264.8869 41,264.8869 41,254.8869 L41,229.59 " fill="#F1F1F1" style="stroke:#181818;stroke-width:0.5;"/><path d="M41,229.59 C41,239.59 71,239.59 71,239.59 C71,239.59 101,239.59 101,229.59 " fill="none" style="stroke:#181818;stroke-width:0.5;"/><text fill="#000000" font-family="sans-serif" font-size="14" lengthAdjust="spacing" textLength="40" x="51" y="256.5851">MySql</text></g><!--entity be--><g id="elem_be"><rect fill="#F1F1F1" height="46.2969" rx="2.5" ry="2.5" style="stroke:#181818;stroke-width:0.5;" width="101" x="20.5" y="113.3"/><rect fill="#F1F1F1" height="10" style="stroke:#181818;stroke-width:0.5;" width="15" x="101.5" y="118.3"/><rect fill="#F1F1F1" height="2" style="stroke:#181818;stroke-width:0.5;" width="4" x="99.5" y="120.3"/><rect fill="#F1F1F1" height="2" style="stroke:#181818;stroke-width:0.5;" width="4" x="99.5" y="124.3"/><text fill="#000000" font-family="sans-serif" font-size="14" lengthAdjust="spacing" textLength="61" x="35.5" y="146.2951">Backend</text></g><!--entity wfe--><g id="elem_wfe"><rect fill="#F1F1F1" height="46.2969" rx="2.5" ry="2.5" style="stroke:#181818;stroke-width:0.5;" width="138" x="7" y="7"/><rect fill="#F1F1F1" height="10" style="stroke:#181818;stroke-width:0.5;" width="15" x="125" y="12"/><rect fill="#F1F1F1" height="2" style="stroke:#181818;stroke-width:0.5;" width="4" x="123" y="14"/><rect fill="#F1F1F1" height="2" style="stroke:#181818;stroke-width:0.5;" width="4" x="123" y="18"/><text fill="#000000" font-family="sans-serif" font-size="14" lengthAdjust="spacing" textLength="98" x="22" y="39.9951">Web Frontend</text></g><!--entity mfe--><g id="elem_mfe"><rect fill="#F1F1F1" height="46.2969" rx="2.5" ry="2.5" style="stroke:#181818;stroke-width:0.5;" width="152" x="180" y="7"/><rect fill="#F1F1F1" height="10" style="stroke:#181818;stroke-width:0.5;" width="15" x="312" y="12"/><rect fill="#F1F1F1" height="2" style="stroke:#181818;stroke-width:0.5;" width="4" x="310" y="14"/><rect fill="#F1F1F1" height="2" style="stroke:#181818;stroke-width:0.5;" width="4" x="310" y="18"/><text fill="#000000" font-family="sans-serif" font-size="14" lengthAdjust="spacing" textLength="112" x="195" y="39.9951">Mobile Frontend</text></g><!--entity h--><g id="elem_h"><ellipse cx="166" cy="136.44" fill="#F1F1F1" rx="8" ry="8" style="stroke:#181818;stroke-width:0.5;"/><text fill="#000000" font-family="sans-serif" font-size="14" lengthAdjust="spacing" textLength="53" x="139.5" y="166.4351">RestAPI</text></g><!--link be to ms--><g id="link_be_ms"><path d="M71,159.97 C71,177.5 71,195.69 71,213.12 " fill="none" id="be-to-ms" style="stroke:#181818;stroke-width:1.0;"/><polygon fill="#181818" points="71,219.12,75,210.12,71,214.12,67,210.12,71,219.12" style="stroke:#181818;stroke-width:1.0;"/></g><!--link be to h--><g id="link_be_h"><path d="M121.84,136.44 C133.45,136.44 145.07,136.44 156.68,136.44 " fill="none" id="be-h" style="stroke:#181818;stroke-width:1.0;"/></g><!--link wfe to h--><g id="link_wfe_h"><path d="M95.53,53.78 C115.38,76.78 141.1696,106.6779 154.7896,122.4579 " fill="none" id="wfe-to-h" style="stroke:#181818;stroke-width:1.0;"/><polygon fill="#181818" points="158.71,127,155.8575,117.5733,155.443,123.2149,149.8014,122.8004,158.71,127" style="stroke:#181818;stroke-width:1.0;"/></g><!--link mfe to h--><g id="link_mfe_h"><path d="M236.47,53.78 C216.62,76.78 190.8304,106.6779 177.2104,122.4579 " fill="none" id="mfe-to-h" style="stroke:#181818;stroke-width:1.0;"/><polygon fill="#181818" points="173.29,127,182.1986,122.8004,176.557,123.2149,176.1425,117.5733,173.29,127" style="stroke:#181818;stroke-width:1.0;"/></g><!--SRC=[IqaiIKnAB4vLyAqCBinHI2nMo2tcIixFBSZFIyqhKN1AJCvEpKi1YIUb8eahXQScARWLvUUL06MLGDBbQIZollb9cJcfg4foWKeqD1M2KejB70CyGI8PN5n9gGgwkdOWMq4ie0ZG8B181bSkZ0K0]--></g></svg>